# xmcd CD database file
#
# Track frame offsets:
#	150
#	10380
#	27330
#	36475
#	52488
#	61011
#	72475
#	90068
#
# Disc length: 1428 seconds
#
# Revision: 0
# Processed by: cddbd v1.5.1PL2 Copyright (c) Steve Scherf et al.
# Submitted via: CDex 1.51
#
DISCID=69059208
DTITLE=MRWK Max en Will - Oooo .... Slow Romance
DYEAR=2005
DGENRE=Blues
TTITLE0=My funny Valentine
TTITLE1=Sweet Cherries
TTITLE2=Weevily Wheat
TTITLE3=Senegal blues
TTITLE4=Black is the color (of my true love's hair)
TTITLE5=Fool
TTITLE6=Joyride
TTITLE7=Ophelia
EXTD=YEAR: 2005
EXTT0=
EXTT1=
EXTT2=
EXTT3=
EXTT4=
EXTT5=
EXTT6=
EXTT7=
PLAYORDER=
